<?xml version="1.0" encoding="UTF-8"?>
<svg width="23px" height="20px" viewBox="0 0 23 20" version="1.1" xmlns="http://www.w3.org/2000/svg" xmlns:xlink="http://www.w3.org/1999/xlink">
    <!-- Generator: Sketch 47.1 (45422) - http://www.bohemiancoding.com/sketch -->
    <title>@1xArtboard</title>
    <desc>Created with Sketch.</desc>
    <defs></defs>
    <g id="Page-1" stroke="none" stroke-width="1" fill="none" fill-rule="evenodd">
        <g id="Phil">
            <g>
                <path d="M14.9219,13.6133 L14.6249,13.6133 C14.4549,13.6133 14.3689,13.7403 14.3269,13.8673 C14.1999,15.1833 13.0969,16.2013 11.7379,16.2013 C10.3819,16.2013 9.2769,15.1833 9.1509,13.8673 C9.1509,13.7403 9.0239,13.6133 8.8539,13.6133 L8.5569,13.6133 C8.3869,13.6133 8.2599,13.7403 8.2599,13.9103 C8.4299,15.6933 9.8719,17.0503 11.6969,17.0503 C13.5219,17.0503 14.9629,15.6503 15.1329,13.9103 C15.2189,13.7403 15.0919,13.6133 14.9219,13.6133" id="Fill-2" fill="#474747"></path>
                <path d="M20.4365,13.6982 C20.2685,13.6982 20.1395,13.6562 19.9285,13.6132 L19.5465,13.4862 L19.4185,13.8672 C18.1885,16.9232 15.2595,18.9172 11.9515,18.9172 C8.6405,18.9172 5.7125,16.9232 4.4825,13.8672 L4.3555,13.4862 L3.9735,13.6132 C3.8035,13.6562 3.6335,13.6982 3.4635,13.6982 C2.5315,13.6982 1.8085,12.9342 1.8085,12.0432 C1.8085,11.3222 2.2755,10.6852 2.9555,10.4732 C3.3795,10.9402 3.9305,11.2372 4.5675,11.2372 C5.7555,11.2372 6.7315,10.2192 6.7315,8.9462 L6.7315,8.8612 C7.7915,8.4782 8.5135,7.4602 8.5135,6.2722 C8.5135,5.9322 8.4705,5.5932 8.3435,5.2962 C8.9375,5.0842 9.4055,4.5322 9.5325,3.8962 C9.8295,4.4052 10.2955,4.7872 10.8475,4.9992 C10.9325,6.0602 11.7815,6.9092 12.8845,6.9092 C13.0965,6.9092 13.3505,6.8662 13.5635,6.7812 C13.8605,7.8422 14.8355,8.6062 15.9395,8.6062 C16.1095,8.6062 16.3215,8.5632 16.4915,8.5212 C16.7045,9.6662 17.6795,10.5152 18.8675,10.5152 C19.2495,10.5152 19.6745,10.4302 20.0125,10.2192 L20.0125,10.3462 L20.3955,10.3462 L20.4365,10.3462 C21.3715,10.3462 22.0935,11.1102 22.0935,12.0012 C22.0935,12.8912 21.3715,13.6982 20.4365,13.6982 L20.4365,13.6982 Z M1.4695,10.2612 C1.4695,9.6242 1.7665,9.0732 2.3185,8.6912 C2.4045,8.6062 2.4885,8.4782 2.4885,8.3512 C2.4885,8.2242 2.4455,8.0962 2.3615,8.0112 C1.7665,7.5022 1.4695,6.8242 1.4695,6.0602 C1.4695,4.5742 2.7425,3.3442 4.2705,3.3442 C4.5255,3.3442 4.8225,3.3862 5.0765,3.4712 C5.2035,3.5132 5.2895,3.4712 5.4155,3.4282 C5.5015,3.3862 5.5855,3.3022 5.6285,3.1752 C5.8395,2.4952 6.4775,2.0282 7.1985,2.0282 C7.8345,2.0282 8.4295,2.4102 8.6835,2.9622 L8.6835,3.0892 C8.7265,3.2172 8.7265,3.3022 8.7265,3.4282 C8.7265,4.0232 8.2595,4.5322 7.7075,4.5742 C7.5385,4.5322 7.3685,4.6592 7.2835,4.7872 C7.1985,4.9142 7.1985,5.0842 7.2835,5.2122 C7.4955,5.5082 7.5805,5.8902 7.5805,6.2722 C7.5805,7.2052 6.9855,7.9692 6.1365,8.1392 C6.0095,8.1392 5.9255,8.2242 5.8395,8.3092 C5.7555,8.3932 5.7555,8.5212 5.7555,8.6482 C5.7985,8.7762 5.7985,8.8612 5.7985,8.9462 C5.7985,9.7512 5.2035,10.3882 4.4825,10.3882 C4.0575,10.3882 3.6335,10.1762 3.4225,9.7512 C3.3795,9.6242 3.1655,9.5392 2.9975,9.5822 C2.3615,9.7102 1.8515,10.0492 1.4695,10.5152 L1.4695,10.2612 Z M11.6545,1.1372 C12.2485,1.1372 12.7575,1.4342 13.0535,1.9432 C13.1385,2.0712 13.2655,2.1562 13.3935,2.1562 C13.5215,2.1562 13.6905,2.1142 13.7765,1.9862 C14.2005,1.3922 14.8785,1.0522 15.6005,1.0522 C16.8735,1.0522 17.8915,2.0712 17.8915,3.3022 L17.8915,3.3442 C17.8915,3.4712 17.9335,3.5562 18.0195,3.6402 C18.1035,3.7262 18.2305,3.7682 18.3575,3.7682 L18.5295,3.7682 C19.5465,3.7682 20.3955,4.6162 20.3955,5.6772 C20.3955,5.8902 20.3525,6.1022 20.3095,6.2722 C20.2255,6.4842 20.3525,6.7392 20.5655,6.8242 C21.4985,7.1212 22.0935,8.0112 22.0935,8.9882 C22.0935,9.3692 22.0075,9.7102 21.8375,10.0062 C21.5405,9.7942 21.1595,9.6242 20.7775,9.5822 C20.7775,9.5392 20.7775,9.4972 20.7345,9.4542 C20.7345,9.3692 20.6935,9.2842 20.6075,9.2002 C20.4365,9.0302 20.1825,9.0732 20.0125,9.2422 C19.7175,9.5392 19.2915,9.7102 18.8675,9.7102 C18.0195,9.7102 17.2975,8.9882 17.2975,8.1392 L17.2975,8.0962 L17.2975,8.0112 C17.2975,7.8422 17.2545,7.7142 17.1275,7.6302 C17.0005,7.5452 16.8315,7.5452 16.7045,7.5872 C16.4495,7.7142 16.1945,7.8002 15.9395,7.8002 C15.0485,7.8002 14.3275,7.0782 14.3275,6.1872 C14.3275,6.0172 14.2425,5.8902 14.0735,5.8052 C13.9455,5.7202 13.7335,5.7632 13.6065,5.8482 C13.3935,6.0172 13.1385,6.1022 12.8845,6.1022 C12.2055,6.1022 11.6975,5.5512 11.6975,4.9142 L11.6975,4.7872 L11.6975,4.7022 L11.6975,4.6162 C11.6975,4.5742 11.6975,4.5742 11.6545,4.5322 C11.6545,4.4902 11.6545,4.4902 11.6115,4.4482 C11.6115,4.4052 11.5705,4.4052 11.5705,4.4052 L11.5275,4.3632 C11.4845,4.3632 11.4845,4.3202 11.4415,4.3202 C11.3985,4.3202 11.3985,4.3202 11.3985,4.2782 C10.6355,4.1512 10.1255,3.5132 10.1255,2.7502 C10.0405,1.8582 10.7625,1.1372 11.6545,1.1372 L11.6545,1.1372 Z M22.9425,8.9462 C22.9425,7.7572 22.2625,6.6542 21.2015,6.1452 C21.2445,5.9752 21.2445,5.8052 21.2445,5.6352 C21.2445,4.1932 20.1395,3.0042 18.6985,2.8772 C18.4855,1.3922 17.1705,0.2042 15.6005,0.2042 C14.7945,0.2042 14.0305,0.5012 13.4355,1.0522 C12.9695,0.5862 12.3325,0.2892 11.6545,0.2892 C10.4655,0.2892 9.4475,1.1372 9.2345,2.2832 C8.7675,1.6042 8.0035,1.1372 7.1555,1.1372 C6.1795,1.1372 5.3325,1.6892 4.9065,2.5382 C4.6955,2.4952 4.4825,2.4952 4.2275,2.4952 C2.2755,2.4952 0.6205,4.1082 0.6205,6.0602 C0.6205,6.9092 0.9165,7.6722 1.4275,8.3092 C0.9165,8.8182 0.6205,9.5392 0.6205,10.2612 C0.6205,10.7282 0.7495,11.2372 1.0025,11.6612 C0.9595,11.7892 0.9595,11.9162 0.9595,12.0862 C0.9595,13.4862 2.0635,14.5892 3.4635,14.5892 C3.5905,14.5892 3.7175,14.5892 3.8455,14.5472 C5.2895,17.7292 8.4295,19.8082 11.9515,19.8082 C15.4725,19.8082 18.6135,17.7722 20.0555,14.5472 C20.1825,14.5472 20.3095,14.5892 20.4365,14.5892 C21.8375,14.5892 22.9425,13.4432 22.9425,12.0862 C22.9425,11.5342 22.7725,11.0252 22.4745,10.6422 C22.7725,10.0912 22.9425,9.5392 22.9425,8.9462 L22.9425,8.9462 Z" id="Fill-4" fill="#474747"></path>
                <path d="M11.6543,1.1377 C12.2483,1.1377 12.7583,1.4347 13.0533,1.9437 C13.1383,2.0717 13.2653,2.1567 13.3933,2.1567 C13.5213,2.1567 13.6903,2.1137 13.7763,1.9867 C14.2003,1.3917 14.8793,1.0527 15.6003,1.0527 C16.8743,1.0527 17.8913,2.0717 17.8913,3.3017 L17.8913,3.3437 C17.8913,3.4717 17.9333,3.5557 18.0193,3.6407 C18.1033,3.7267 18.2303,3.7687 18.3573,3.7687 L18.5293,3.7687 C19.5473,3.7687 20.3953,4.6167 20.3953,5.6777 C20.3953,5.8897 20.3523,6.1017 20.3093,6.2727 C20.2253,6.4847 20.3523,6.7397 20.5653,6.8247 C21.4983,7.1207 22.0933,8.0117 22.0933,8.9877 C22.0933,9.3697 22.0083,9.7097 21.8383,10.0057 C21.5413,9.7937 21.1593,9.6247 20.7773,9.5817 C20.7773,9.5397 20.7773,9.4967 20.7343,9.4547 C20.7343,9.3697 20.6933,9.2847 20.6073,9.2007 C20.4363,9.0307 20.1823,9.0727 20.0123,9.2427 C19.7173,9.5397 19.2923,9.7097 18.8673,9.7097 C18.0193,9.7097 17.2983,8.9877 17.2983,8.1387 L17.2983,8.0967 L17.2983,8.0117 C17.2983,7.8427 17.2553,7.7147 17.1283,7.6297 C17.0013,7.5457 16.8313,7.5457 16.7043,7.5877 C16.4493,7.7147 16.1943,7.7997 15.9393,7.7997 C15.0493,7.7997 14.3273,7.0777 14.3273,6.1867 C14.3273,6.0167 14.2423,5.8897 14.0733,5.8047 C13.9453,5.7207 13.7333,5.7627 13.6063,5.8477 C13.3933,6.0167 13.1383,6.1017 12.8843,6.1017 C12.2053,6.1017 11.6973,5.5507 11.6973,4.9137 L11.6973,4.7867 L11.6973,4.7017 L11.6973,4.6167 C11.6973,4.5747 11.6973,4.5747 11.6543,4.5327 C11.6543,4.4897 11.6543,4.4897 11.6113,4.4477 C11.6113,4.4047 11.5703,4.4047 11.5703,4.4047 L11.5273,4.3627 C11.4843,4.3627 11.4843,4.3197 11.4413,4.3197 C11.3983,4.3197 11.3983,4.3197 11.3983,4.2777 C10.6353,4.1507 10.1263,3.5137 10.1263,2.7507 C10.0413,1.8587 10.7623,1.1377 11.6543,1.1377" id="Fill-6" fill="#FFFFFF"></path>
                <path d="M1.4697,10.2612 C1.4697,9.6242 1.7667,9.0732 2.3187,8.6912 C2.4047,8.6062 2.4887,8.4782 2.4887,8.3512 C2.4887,8.2242 2.4457,8.0962 2.3617,8.0112 C1.7667,7.5022 1.4697,6.8242 1.4697,6.0602 C1.4697,4.5742 2.7417,3.3442 4.2707,3.3442 C4.5257,3.3442 4.8227,3.3862 5.0757,3.4712 C5.2027,3.5132 5.2887,3.4712 5.4157,3.4282 C5.5017,3.3862 5.5857,3.3022 5.6287,3.1752 C5.8397,2.4952 6.4777,2.0282 7.1987,2.0282 C7.8347,2.0282 8.4297,2.4102 8.6837,2.9622 L8.6837,3.0892 C8.7267,3.2172 8.7267,3.3022 8.7267,3.4282 C8.7267,4.0232 8.2597,4.5322 7.7077,4.5742 C7.5377,4.5322 7.3677,4.6592 7.2827,4.7872 C7.1987,4.9142 7.1987,5.0842 7.2827,5.2122 C7.4947,5.5082 7.5797,5.8902 7.5797,6.2722 C7.5797,7.2052 6.9857,7.9692 6.1367,8.1392 C6.0097,8.1392 5.9257,8.2242 5.8397,8.3092 C5.7557,8.3932 5.7557,8.5212 5.7557,8.6482 C5.7987,8.7762 5.7987,8.8612 5.7987,8.9462 C5.7987,9.7512 5.2027,10.3882 4.4827,10.3882 C4.0577,10.3882 3.6337,10.1762 3.4227,9.7512 C3.3797,9.6242 3.1657,9.5392 2.9967,9.5822 C2.3617,9.7102 1.8517,10.0492 1.4697,10.5152 L1.4697,10.2612 Z" id="Fill-8" fill="#FFFFFF"></path>
            </g>
        </g>
        <g id="Artboard"></g>
    </g>
</svg>